
<svg xmlns="http://www.w3.org/2000/svg"  width="500" zoomAndPan="magnify" viewBox="0 0 375 374.999991" height="500" preserveAspectRatio="xMidYMid meet" version="1.0"><defs><g/><clipPath id="25119d68c5"><path d="M 287.066406 188.25 L 291.136719 188.25 L 291.136719 192.320312 L 287.066406 192.320312 Z M 287.066406 188.25 " clip-rule="nonzero"/></clipPath><clipPath id="c28aba75ee"><path d="M 289.101562 188.25 C 287.976562 188.25 287.066406 189.160156 287.066406 190.285156 C 287.066406 191.40625 287.976562 192.320312 289.101562 192.320312 C 290.226562 192.320312 291.136719 191.40625 291.136719 190.285156 C 291.136719 189.160156 290.226562 188.25 289.101562 188.25 Z M 289.101562 188.25 " clip-rule="nonzero"/></clipPath></defs><rect x="-37.5" width="450" fill="#ffffff" y="-37.499999" height="449.999989" fill-opacity="1"/><rect x="-37.5" width="450" fill="#ffffff" y="-37.499999" height="449.999989" fill-opacity="1"/><g fill="#000000" fill-opacity="1"><g transform="translate(99.545378, 228.849727)"><g><path d="M 9.140625 -44.65625 C 9.367188 -44.695312 9.582031 -44.648438 9.78125 -44.515625 C 9.988281 -44.390625 10.125 -44.234375 10.1875 -44.046875 C 10.269531 -43.660156 10.3125 -43.285156 10.3125 -42.921875 C 10.351562 -42.535156 10.359375 -42.164062 10.328125 -41.8125 C 10.335938 -41.65625 10.351562 -41.519531 10.375 -41.40625 C 10.132812 -37.101562 9.644531 -32.851562 8.90625 -28.65625 C 8.851562 -28.175781 8.867188 -27.707031 8.953125 -27.25 C 9.078125 -26.707031 9.054688 -26.171875 8.890625 -25.640625 C 8.441406 -24.679688 8.125 -23.703125 7.9375 -22.703125 C 6.65625 -15.628906 5.203125 -8.601562 3.578125 -1.625 C 2.234375 4.332031 0.550781 10.21875 -1.46875 16.03125 C -2.019531 17.550781 -2.632812 19.078125 -3.3125 20.609375 C -3.644531 21.265625 -4.035156 21.890625 -4.484375 22.484375 C -4.898438 22.972656 -5.441406 23.179688 -6.109375 23.109375 C -6.785156 23.054688 -7.171875 22.6875 -7.265625 22 C -7.316406 21.175781 -7.269531 20.359375 -7.125 19.546875 C -6.207031 14.703125 -5.101562 9.898438 -3.8125 5.140625 C -1.488281 -3.847656 1.484375 -12.613281 5.109375 -21.15625 C 5.765625 -22.789062 6.203125 -24.441406 6.421875 -26.109375 C 6.867188 -28.847656 7.257812 -31.585938 7.59375 -34.328125 C 7.9375 -37.078125 8.171875 -39.832031 8.296875 -42.59375 C 8.304688 -43.03125 8.335938 -43.476562 8.390625 -43.9375 C 8.484375 -44.351562 8.734375 -44.59375 9.140625 -44.65625 Z M -4.234375 17.8125 C -2.554688 13.101562 -1.113281 8.347656 0.09375 3.546875 C 1.3125 -1.253906 2.351562 -6.117188 3.21875 -11.046875 C 3.207031 -11.015625 3.195312 -10.96875 3.1875 -10.90625 C 3.101562 -10.863281 3.035156 -10.796875 2.984375 -10.703125 C 2.847656 -10.335938 2.722656 -9.984375 2.609375 -9.640625 C 1.097656 -5.328125 -0.226562 -0.960938 -1.375 3.453125 C -2.519531 7.867188 -3.582031 12.296875 -4.5625 16.734375 C -4.570312 16.796875 -4.578125 16.835938 -4.578125 16.859375 C -4.628906 17.003906 -4.640625 17.15625 -4.609375 17.3125 C -4.585938 17.476562 -4.460938 17.644531 -4.234375 17.8125 Z M 85.140625 -57.984375 C 85.160156 -57.878906 85.128906 -57.765625 85.046875 -57.640625 C 84.960938 -57.515625 84.859375 -57.410156 84.734375 -57.328125 C 84.609375 -57.253906 84.492188 -57.242188 84.390625 -57.296875 C 83.660156 -57.597656 82.914062 -57.757812 82.15625 -57.78125 C 81.394531 -57.800781 80.640625 -57.785156 79.890625 -57.734375 C 79.328125 -57.671875 78.769531 -57.648438 78.21875 -57.671875 C 76.175781 -57.648438 74.144531 -57.582031 72.125 -57.46875 C 65.5 -56.9375 58.898438 -56.160156 52.328125 -55.140625 C 45.984375 -54.191406 39.671875 -53.019531 33.390625 -51.625 C 26.304688 -50.125 19.257812 -48.441406 12.25 -46.578125 C 5.789062 -44.910156 -0.625 -43.132812 -7 -41.25 C -7.394531 -41.125 -7.8125 -41 -8.25 -40.875 C -10.675781 -40.144531 -13.097656 -39.390625 -15.515625 -38.609375 C -17.941406 -37.828125 -20.347656 -36.957031 -22.734375 -36 C -22.921875 -35.90625 -23.113281 -35.816406 -23.3125 -35.734375 C -24.226562 -35.347656 -25.148438 -34.9375 -26.078125 -34.5 C -27.003906 -34.0625 -27.878906 -33.539062 -28.703125 -32.9375 C -28.816406 -32.84375 -28.945312 -32.765625 -29.09375 -32.703125 C -29.28125 -32.648438 -29.46875 -32.628906 -29.65625 -32.640625 C -29.84375 -32.648438 -30.003906 -32.734375 -30.140625 -32.890625 C -30.273438 -33.054688 -30.316406 -33.226562 -30.265625 -33.40625 C -30.222656 -33.582031 -30.113281 -33.734375 -29.9375 -33.859375 C -29.40625 -34.265625 -28.84375 -34.640625 -28.25 -34.984375 C -26.75 -35.753906 -25.21875 -36.457031 -23.65625 -37.09375 C -22.101562 -37.726562 -20.539062 -38.316406 -18.96875 -38.859375 C -14.382812 -40.421875 -9.785156 -41.878906 -5.171875 -43.234375 C -0.554688 -44.597656 4.085938 -45.898438 8.765625 -47.140625 C 15.316406 -48.898438 21.910156 -50.53125 28.546875 -52.03125 C 34.304688 -53.363281 40.097656 -54.523438 45.921875 -55.515625 C 50.203125 -56.265625 54.488281 -56.921875 58.78125 -57.484375 C 63.070312 -58.046875 67.378906 -58.484375 71.703125 -58.796875 C 75.679688 -59.035156 79.648438 -59.070312 83.609375 -58.90625 C 83.972656 -58.875 84.320312 -58.796875 84.65625 -58.671875 C 84.945312 -58.535156 85.109375 -58.304688 85.140625 -57.984375 Z M 85.140625 -57.984375 "/></g></g><g transform="translate(112.263474, 226.784007)"><g><path d="M 8.8125 -8.265625 C 8.25 -7.492188 7.5625 -6.800781 6.75 -6.1875 C 5.9375 -5.582031 5.238281 -5.160156 4.65625 -4.921875 C 4.070312 -4.679688 3.46875 -4.492188 2.84375 -4.359375 C 1.820312 -4.148438 0.859375 -4.132812 -0.046875 -4.3125 C -1.546875 -4.664062 -2.207031 -5.675781 -2.03125 -7.34375 C -1.851562 -8.78125 -1.207031 -9.984375 -0.09375 -10.953125 C 1.019531 -11.921875 2.238281 -12.503906 3.5625 -12.703125 C 3.5625 -12.703125 3.570312 -12.703125 3.59375 -12.703125 C 3.925781 -12.785156 4.253906 -12.816406 4.578125 -12.796875 C 5.109375 -12.691406 5.476562 -12.441406 5.6875 -12.046875 C 5.894531 -11.660156 5.878906 -11.1875 5.640625 -10.625 C 5.078125 -9.375 4.171875 -8.585938 2.921875 -8.265625 C 2.085938 -8.046875 1.265625 -7.957031 0.453125 -8 C 0.304688 -7.988281 0.179688 -7.921875 0.078125 -7.796875 C -0.0234375 -7.679688 -0.078125 -7.539062 -0.078125 -7.375 C -0.148438 -6.34375 0.257812 -5.757812 1.15625 -5.625 C 2.257812 -5.425781 3.34375 -5.601562 4.40625 -6.15625 C 5.632812 -6.769531 6.738281 -7.726562 7.71875 -9.03125 C 8.707031 -10.34375 9.296875 -10.972656 9.484375 -10.921875 C 9.679688 -10.878906 9.773438 -10.675781 9.765625 -10.3125 C 9.691406 -9.71875 9.375 -9.035156 8.8125 -8.265625 Z M 0.96875 -9.859375 C 0.90625 -9.765625 0.867188 -9.664062 0.859375 -9.5625 C 0.847656 -9.457031 0.898438 -9.378906 1.015625 -9.328125 C 1.453125 -9.160156 1.898438 -9.144531 2.359375 -9.28125 C 2.828125 -9.425781 3.203125 -9.671875 3.484375 -10.015625 C 3.773438 -10.367188 3.859375 -10.75 3.734375 -11.15625 C 3.679688 -11.3125 3.585938 -11.398438 3.453125 -11.421875 C 3.316406 -11.441406 3.191406 -11.425781 3.078125 -11.375 C 2.234375 -11.082031 1.53125 -10.578125 0.96875 -9.859375 Z M 0.96875 -9.859375 "/></g></g><g transform="translate(122.361608, 225.14383)"><g><path d="M 11.15625 -10.875 C 11.457031 -10.769531 11.535156 -10.398438 11.390625 -9.765625 C 11.140625 -9.265625 10.851562 -8.789062 10.53125 -8.34375 C 10.207031 -7.90625 9.835938 -7.492188 9.421875 -7.109375 C 9.390625 -7.109375 9.378906 -7.097656 9.390625 -7.078125 C 9.128906 -6.828125 8.835938 -6.597656 8.515625 -6.390625 C 5.921875 -4.941406 4.421875 -5.296875 4.015625 -7.453125 C 3.046875 -6.296875 2.390625 -5.578125 2.046875 -5.296875 C 1.222656 -4.609375 0.269531 -4.210938 -0.8125 -4.109375 C -1.601562 -4.003906 -2.175781 -4.144531 -2.53125 -4.53125 C -2.882812 -4.925781 -2.957031 -5.523438 -2.75 -6.328125 C -2.425781 -7.578125 -1.863281 -8.734375 -1.0625 -9.796875 C -0.132812 -10.992188 0.953125 -12.007812 2.203125 -12.84375 C 2.859375 -13.320312 3.582031 -13.582031 4.375 -13.625 C 5.175781 -13.707031 5.722656 -13.34375 6.015625 -12.53125 C 6.117188 -12.28125 6.09375 -12.039062 5.9375 -11.8125 C 5.71875 -11.539062 5.429688 -11.4375 5.078125 -11.5 C 5.054688 -11.5 5.019531 -11.5 4.96875 -11.5 C 4.925781 -11.507812 4.890625 -11.523438 4.859375 -11.546875 C 4.460938 -11.960938 4.097656 -12.101562 3.765625 -11.96875 C 3.429688 -11.832031 3.09375 -11.613281 2.75 -11.3125 C 1.132812 -9.988281 0.0507812 -8.328125 -0.5 -6.328125 C -0.539062 -6.234375 -0.554688 -6.132812 -0.546875 -6.03125 C -0.546875 -5.9375 -0.503906 -5.863281 -0.421875 -5.8125 C -0.210938 -5.78125 0.0078125 -5.832031 0.25 -5.96875 C 0.488281 -6.113281 0.71875 -6.300781 0.9375 -6.53125 C 1.164062 -6.769531 1.359375 -6.960938 1.515625 -7.109375 C 1.535156 -7.148438 1.546875 -7.171875 1.546875 -7.171875 C 2.273438 -8.015625 2.984375 -8.875 3.671875 -9.75 C 3.960938 -10.1875 4.378906 -10.472656 4.921875 -10.609375 C 5.679688 -10.734375 6.046875 -10.445312 6.015625 -9.75 C 5.992188 -9.476562 5.960938 -9.207031 5.921875 -8.9375 C 5.796875 -7.789062 5.890625 -7.144531 6.203125 -7 C 6.515625 -6.851562 6.9375 -6.921875 7.46875 -7.203125 C 8.007812 -7.492188 8.523438 -7.953125 9.015625 -8.578125 C 9.503906 -9.210938 9.910156 -9.78125 10.234375 -10.28125 C 10.554688 -10.789062 10.863281 -10.988281 11.15625 -10.875 Z M 11.15625 -10.875 "/></g></g><g transform="translate(133.865152, 223.275382)"><g><path d="M 16.734375 -11.65625 C 17.085938 -11.957031 17.390625 -12.066406 17.640625 -11.984375 C 17.898438 -11.898438 17.875 -11.523438 17.5625 -10.859375 C 17.15625 -10.097656 16.359375 -9.222656 15.171875 -8.234375 C 13.992188 -7.242188 12.894531 -6.710938 11.875 -6.640625 C 10.851562 -6.578125 10.4375 -7.273438 10.625 -8.734375 C 10.820312 -10.203125 10.925781 -11.019531 10.9375 -11.1875 C 10.945312 -11.363281 10.898438 -11.453125 10.796875 -11.453125 C 10.691406 -11.460938 10.476562 -11.3125 10.15625 -11 C 9.238281 -10.113281 8.347656 -9.191406 7.484375 -8.234375 C 7.097656 -7.859375 6.726562 -7.453125 6.375 -7.015625 C 6.15625 -6.742188 5.929688 -6.472656 5.703125 -6.203125 C 5.703125 -6.203125 5.691406 -6.1875 5.671875 -6.15625 C 5.421875 -5.8125 5.078125 -5.546875 4.640625 -5.359375 C 4.460938 -5.273438 4.257812 -5.222656 4.03125 -5.203125 C 3.8125 -5.179688 3.609375 -5.238281 3.421875 -5.375 C 3.234375 -5.519531 3.144531 -5.6875 3.15625 -5.875 C 3.175781 -6.070312 3.273438 -6.378906 3.453125 -6.796875 C 3.640625 -7.222656 3.835938 -7.6875 4.046875 -8.1875 C 4.265625 -8.695312 4.382812 -9.003906 4.40625 -9.109375 C 4.425781 -9.222656 4.394531 -9.328125 4.3125 -9.421875 C 4.207031 -9.515625 4.109375 -9.535156 4.015625 -9.484375 C 3.929688 -9.429688 3.601562 -9.125 3.03125 -8.5625 C 2.46875 -8 1.707031 -7.21875 0.75 -6.21875 C 0.300781 -5.75 -0.125 -5.269531 -0.53125 -4.78125 C -0.644531 -4.632812 -0.769531 -4.5 -0.90625 -4.375 C -1.207031 -4.019531 -1.578125 -3.796875 -2.015625 -3.703125 C -2.304688 -3.628906 -2.546875 -3.660156 -2.734375 -3.796875 C -2.921875 -3.929688 -2.976562 -4.148438 -2.90625 -4.453125 C -2.875 -4.671875 -2.820312 -4.867188 -2.75 -5.046875 C -2.695312 -5.140625 -2.671875 -5.226562 -2.671875 -5.3125 C -2.054688 -7.3125 -1.453125 -9.320312 -0.859375 -11.34375 C -0.847656 -11.382812 -0.835938 -11.445312 -0.828125 -11.53125 C -0.742188 -11.738281 -0.664062 -11.945312 -0.59375 -12.15625 C -0.363281 -12.5 -0.0507812 -12.648438 0.34375 -12.609375 C 0.800781 -12.554688 1.007812 -12.328125 0.96875 -11.921875 C 0.851562 -11.304688 0.742188 -10.703125 0.640625 -10.109375 C 0.578125 -9.835938 0.515625 -9.566406 0.453125 -9.296875 C 0.359375 -8.816406 0.347656 -8.515625 0.421875 -8.390625 C 0.503906 -8.273438 0.78125 -8.410156 1.25 -8.796875 C 1.550781 -9.097656 1.851562 -9.382812 2.15625 -9.65625 C 2.507812 -10 2.863281 -10.320312 3.21875 -10.625 C 3.738281 -11.070312 4.285156 -11.476562 4.859375 -11.84375 C 5.140625 -12.007812 5.429688 -12.148438 5.734375 -12.265625 C 6.046875 -12.378906 6.359375 -12.359375 6.671875 -12.203125 C 6.910156 -12.054688 7.03125 -11.867188 7.03125 -11.640625 C 7.039062 -11.421875 7.015625 -11.203125 6.953125 -10.984375 C 6.859375 -10.578125 6.832031 -10.328125 6.875 -10.234375 C 6.914062 -10.140625 7.007812 -10.132812 7.15625 -10.21875 C 7.300781 -10.3125 7.546875 -10.503906 7.890625 -10.796875 C 8.234375 -11.085938 8.601562 -11.40625 9 -11.75 C 9.488281 -12.195312 10.015625 -12.640625 10.578125 -13.078125 C 11.035156 -13.484375 11.546875 -13.769531 12.109375 -13.9375 C 12.898438 -14.125 13.28125 -13.851562 13.25 -13.125 C 13.21875 -12.40625 13.070312 -11.523438 12.8125 -10.484375 C 12.550781 -9.453125 12.601562 -8.851562 12.96875 -8.6875 C 13.34375 -8.53125 14.023438 -8.953125 15.015625 -9.953125 C 16.015625 -10.953125 16.585938 -11.519531 16.734375 -11.65625 Z M 16.734375 -11.65625 "/></g></g><g transform="translate(152.22224, 220.293755)"><g/></g><g transform="translate(165.339403, 218.163217)"><g><path d="M 91.203125 -31.09375 C 88.953125 -30.976562 86.707031 -30.738281 84.46875 -30.375 C 83.476562 -30.25 82.46875 -30.117188 81.4375 -29.984375 C 72.113281 -28.867188 62.8125 -27.457031 53.53125 -25.75 C 53.0625 -25.675781 52.679688 -25.617188 52.390625 -25.578125 C 51.867188 -25.523438 51.492188 -25.457031 51.265625 -25.375 C 51.046875 -25.289062 50.882812 -25.132812 50.78125 -24.90625 C 50.675781 -24.675781 50.570312 -24.296875 50.46875 -23.765625 C 50.394531 -23.472656 50.300781 -23.109375 50.1875 -22.671875 C 49.1875 -19.023438 48.320312 -15.359375 47.59375 -11.671875 C 47.113281 -9.273438 46.832031 -6.859375 46.75 -4.421875 C 46.695312 -3.648438 46.753906 -2.914062 46.921875 -2.21875 C 47.097656 -1.519531 47.519531 -0.941406 48.1875 -0.484375 C 48.269531 -0.441406 48.304688 -0.375 48.296875 -0.28125 C 48.296875 -0.1875 48.257812 -0.09375 48.1875 0 C 48.113281 0.0820312 48.035156 0.140625 47.953125 0.171875 C 46.617188 0.597656 45.710938 0.238281 45.234375 -0.90625 C 44.960938 -1.539062 44.820312 -2.226562 44.8125 -2.96875 C 44.800781 -3.007812 44.796875 -3.039062 44.796875 -3.0625 C 44.703125 -4.300781 44.71875 -5.546875 44.84375 -6.796875 C 44.976562 -8.054688 45.15625 -9.316406 45.375 -10.578125 C 46.09375 -14.398438 46.953125 -18.195312 47.953125 -21.96875 C 48.015625 -22.125 48.054688 -22.285156 48.078125 -22.453125 C 48.128906 -22.640625 48.1875 -22.832031 48.25 -23.03125 C 48.320312 -23.289062 48.390625 -23.5625 48.453125 -23.84375 C 48.523438 -24.125 48.523438 -24.394531 48.453125 -24.65625 C 48.304688 -24.738281 48.171875 -24.78125 48.046875 -24.78125 C 47.921875 -24.789062 47.796875 -24.769531 47.671875 -24.71875 C 47.648438 -24.71875 47.617188 -24.710938 47.578125 -24.703125 C 46.484375 -24.523438 45.394531 -24.335938 44.3125 -24.140625 C 44 -24.097656 43.675781 -24.050781 43.34375 -24 C 42.945312 -23.90625 42.628906 -23.71875 42.390625 -23.4375 C 42.148438 -23.164062 41.929688 -22.84375 41.734375 -22.46875 C 41.460938 -21.988281 41.191406 -21.503906 40.921875 -21.015625 C 39.804688 -18.972656 38.664062 -16.941406 37.5 -14.921875 C 35.78125 -11.984375 33.953125 -9.117188 32.015625 -6.328125 C 30.078125 -3.546875 27.972656 -0.894531 25.703125 1.625 C 22.847656 4.875 19.742188 7.820312 16.390625 10.46875 C 11.234375 14.414062 5.550781 16.816406 -0.65625 17.671875 C -6.507812 18.492188 -12.019531 17.773438 -17.1875 15.515625 C -18.644531 14.878906 -19.984375 14.046875 -21.203125 13.015625 C -22.015625 12.285156 -22.703125 11.460938 -23.265625 10.546875 C -23.828125 9.640625 -24.195312 8.613281 -24.375 7.46875 C -24.539062 6.082031 -24.4375 4.753906 -24.0625 3.484375 C -23.6875 2.210938 -23.066406 1.019531 -22.203125 -0.09375 C -21.023438 -1.675781 -19.664062 -3.070312 -18.125 -4.28125 C -16.65625 -5.5 -15.109375 -6.601562 -13.484375 -7.59375 C -11.867188 -8.582031 -10.226562 -9.492188 -8.5625 -10.328125 C -5.875 -11.710938 -3.128906 -12.953125 -0.328125 -14.046875 C 2.472656 -15.148438 5.300781 -16.160156 8.15625 -17.078125 C 14.945312 -19.160156 21.804688 -20.925781 28.734375 -22.375 C 32.253906 -23.164062 35.785156 -23.847656 39.328125 -24.421875 C 40.296875 -24.554688 40.976562 -25.09375 41.375 -26.03125 C 42.101562 -27.5 42.832031 -28.972656 43.5625 -30.453125 C 44.695312 -32.722656 45.8125 -35.03125 46.90625 -37.375 C 51.90625 -48.320312 56.613281 -59.390625 61.03125 -70.578125 C 61.382812 -71.523438 61.734375 -72.488281 62.078125 -73.46875 C 62.234375 -73.957031 62.40625 -74.453125 62.59375 -74.953125 C 62.800781 -75.585938 63.226562 -75.992188 63.875 -76.171875 C 64.226562 -76.234375 64.503906 -76.175781 64.703125 -76 C 64.910156 -75.832031 64.972656 -75.566406 64.890625 -75.203125 C 64.804688 -74.898438 64.703125 -74.609375 64.578125 -74.328125 C 63.898438 -72.410156 63.320312 -70.488281 62.84375 -68.5625 C 62.65625 -67.882812 62.46875 -67.210938 62.28125 -66.546875 C 60.5625 -60.328125 58.820312 -54.09375 57.0625 -47.84375 C 55.738281 -43.03125 54.390625 -38.207031 53.015625 -33.375 C 52.640625 -31.9375 52.265625 -30.507812 51.890625 -29.09375 C 51.804688 -28.789062 51.722656 -28.503906 51.640625 -28.234375 C 51.617188 -28.179688 51.601562 -28.117188 51.59375 -28.046875 C 51.539062 -27.835938 51.5 -27.640625 51.46875 -27.453125 C 51.445312 -27.273438 51.492188 -27.101562 51.609375 -26.9375 C 51.804688 -26.84375 52.019531 -26.804688 52.25 -26.828125 C 52.476562 -26.859375 52.691406 -26.890625 52.890625 -26.921875 C 53.054688 -26.972656 53.203125 -27.003906 53.328125 -27.015625 C 54.296875 -27.160156 55.257812 -27.320312 56.21875 -27.5 C 57.539062 -27.707031 58.867188 -27.910156 60.203125 -28.109375 C 67.441406 -29.148438 74.691406 -30.160156 81.953125 -31.140625 C 84.328125 -31.484375 86.695312 -31.773438 89.0625 -32.015625 C 89.28125 -32.023438 89.5 -32.046875 89.71875 -32.078125 C 89.851562 -32.097656 89.992188 -32.125 90.140625 -32.15625 C 90.453125 -32.207031 90.75 -32.226562 91.03125 -32.21875 C 91.320312 -32.207031 91.613281 -32.144531 91.90625 -32.03125 C 91.945312 -32.007812 91.988281 -31.960938 92.03125 -31.890625 C 92.070312 -31.816406 92.078125 -31.753906 92.046875 -31.703125 C 92.066406 -31.617188 92.050781 -31.539062 92 -31.46875 C 91.945312 -31.394531 91.894531 -31.347656 91.84375 -31.328125 C 91.644531 -31.203125 91.429688 -31.125 91.203125 -31.09375 Z M 39.515625 -22.5 C 39.578125 -22.675781 39.566406 -22.820312 39.484375 -22.9375 C 39.398438 -23.050781 39.28125 -23.09375 39.125 -23.0625 C 38.875 -23.050781 38.632812 -23.015625 38.40625 -22.953125 C 38.269531 -22.921875 38.140625 -22.898438 38.015625 -22.890625 C 29.296875 -21.359375 20.648438 -19.335938 12.078125 -16.828125 C 8.804688 -15.878906 5.566406 -14.804688 2.359375 -13.609375 C -0.847656 -12.421875 -3.988281 -11.0625 -7.0625 -9.53125 C -8.71875 -8.71875 -10.332031 -7.828125 -11.90625 -6.859375 C -13.476562 -5.898438 -14.992188 -4.816406 -16.453125 -3.609375 C -17.984375 -2.398438 -19.320312 -1.007812 -20.46875 0.5625 C -21.8125 2.46875 -22.429688 4.375 -22.328125 6.28125 C -22.234375 8.1875 -21.441406 9.910156 -19.953125 11.453125 C -18.867188 12.523438 -17.632812 13.394531 -16.25 14.0625 C -11.21875 16.53125 -5.582031 17.285156 0.65625 16.328125 C 2.25 16.066406 4.050781 15.5625 6.0625 14.8125 C 8.039062 14.050781 9.921875 13.097656 11.703125 11.953125 C 13.492188 10.816406 15.203125 9.539062 16.828125 8.125 C 20.835938 4.664062 24.441406 0.800781 27.640625 -3.46875 C 29.867188 -6.351562 31.925781 -9.34375 33.8125 -12.4375 C 35.695312 -15.539062 37.5 -18.679688 39.21875 -21.859375 C 39.320312 -22.085938 39.421875 -22.300781 39.515625 -22.5 Z M 49.5625 -27.828125 C 50.613281 -31.910156 51.71875 -35.988281 52.875 -40.0625 C 52.925781 -40.289062 53.097656 -40.9375 53.390625 -42 C 53.691406 -43.070312 54.035156 -44.3125 54.421875 -45.71875 C 54.804688 -47.125 55.148438 -48.445312 55.453125 -49.6875 C 55.753906 -50.9375 55.957031 -51.867188 56.0625 -52.484375 C 56.175781 -53.109375 56.109375 -53.15625 55.859375 -52.625 C 55.785156 -52.519531 55.742188 -52.410156 55.734375 -52.296875 C 55.515625 -51.835938 55.3125 -51.390625 55.125 -50.953125 C 53.539062 -47.316406 51.941406 -43.6875 50.328125 -40.0625 C 48.722656 -36.445312 47.035156 -32.863281 45.265625 -29.3125 C 45.085938 -28.96875 44.914062 -28.613281 44.75 -28.25 C 44.40625 -27.582031 44.070312 -26.898438 43.75 -26.203125 C 43.613281 -25.921875 43.597656 -25.703125 43.703125 -25.546875 C 43.804688 -25.398438 43.992188 -25.347656 44.265625 -25.390625 C 44.734375 -25.460938 45.1875 -25.546875 45.625 -25.640625 C 46.320312 -25.816406 47.03125 -25.960938 47.75 -26.078125 C 48.300781 -26.140625 48.703125 -26.320312 48.953125 -26.625 C 49.210938 -26.925781 49.414062 -27.328125 49.5625 -27.828125 Z M 49.5625 -27.828125 "/></g></g><g transform="translate(220.341265, 209.229609)"><g><path d="M 12.78125 -10.375 C 12.59375 -10.144531 12.398438 -9.945312 12.203125 -9.78125 C 11.535156 -9.1875 10.925781 -8.707031 10.375 -8.34375 C 9.820312 -7.976562 9.160156 -7.59375 8.390625 -7.1875 C 7.253906 -6.632812 6.472656 -6.585938 6.046875 -7.046875 C 5.617188 -7.503906 5.441406 -8.21875 5.515625 -9.1875 C 5.628906 -10.570312 5.660156 -11.570312 5.609375 -12.1875 C 5.566406 -12.8125 5.332031 -12.988281 4.90625 -12.71875 C 4.476562 -12.445312 3.75 -11.679688 2.71875 -10.421875 C 1.28125 -8.703125 0.117188 -6.8125 -0.765625 -4.75 C -0.890625 -4.476562 -1.039062 -4.242188 -1.21875 -4.046875 C -1.40625 -3.847656 -1.664062 -3.722656 -2 -3.671875 C -2.300781 -3.617188 -2.535156 -3.660156 -2.703125 -3.796875 C -2.878906 -3.941406 -2.925781 -4.164062 -2.84375 -4.46875 C -2.40625 -6.070312 -1.945312 -7.671875 -1.46875 -9.265625 C -0.65625 -12.046875 0.132812 -14.800781 0.90625 -17.53125 C 1.488281 -19.582031 2.0625 -21.628906 2.625 -23.671875 C 2.96875 -24.890625 3.300781 -26.101562 3.625 -27.3125 C 3.65625 -27.40625 3.691406 -27.507812 3.734375 -27.625 C 3.753906 -27.757812 3.785156 -27.894531 3.828125 -28.03125 C 3.878906 -28.164062 3.9375 -28.3125 4 -28.46875 C 4.039062 -28.613281 4.148438 -28.742188 4.328125 -28.859375 C 4.503906 -28.972656 4.6875 -29.054688 4.875 -29.109375 C 5.070312 -29.160156 5.226562 -29.175781 5.34375 -29.15625 C 5.5 -29.0625 5.597656 -28.957031 5.640625 -28.84375 C 5.679688 -28.738281 5.679688 -28.617188 5.640625 -28.484375 C 5.617188 -28.453125 5.613281 -28.414062 5.625 -28.375 C 5.5 -27.632812 5.363281 -26.925781 5.21875 -26.25 C 4.320312 -22.476562 3.28125 -18.734375 2.09375 -15.015625 C 2.007812 -14.765625 1.910156 -14.460938 1.796875 -14.109375 C 1.609375 -13.597656 1.441406 -13.097656 1.296875 -12.609375 C 1.148438 -12.128906 1.125 -11.820312 1.21875 -11.6875 C 1.320312 -11.5625 1.648438 -11.734375 2.203125 -12.203125 C 2.359375 -12.367188 2.503906 -12.53125 2.640625 -12.6875 C 3.078125 -13.09375 3.503906 -13.476562 3.921875 -13.84375 C 4.296875 -14.1875 4.738281 -14.410156 5.25 -14.515625 C 6.445312 -14.796875 7.21875 -14.351562 7.5625 -13.1875 C 7.695312 -12.726562 7.753906 -12.257812 7.734375 -11.78125 C 7.722656 -11.300781 7.6875 -10.828125 7.625 -10.359375 C 7.625 -10.234375 7.625 -10.101562 7.625 -9.96875 C 7.550781 -9.144531 7.679688 -8.695312 8.015625 -8.625 C 8.359375 -8.5625 8.789062 -8.703125 9.3125 -9.046875 C 9.84375 -9.390625 10.378906 -9.773438 10.921875 -10.203125 C 11.285156 -10.492188 11.609375 -10.734375 11.890625 -10.921875 C 12.171875 -11.117188 12.390625 -11.222656 12.546875 -11.234375 C 12.835938 -11.234375 12.984375 -11.140625 12.984375 -10.953125 C 12.984375 -10.765625 12.914062 -10.570312 12.78125 -10.375 Z M 12.78125 -10.375 "/></g></g><g transform="translate(233.579883, 207.079343)"><g><path d="M 8.8125 -8.265625 C 8.25 -7.492188 7.5625 -6.800781 6.75 -6.1875 C 5.9375 -5.582031 5.238281 -5.160156 4.65625 -4.921875 C 4.070312 -4.679688 3.46875 -4.492188 2.84375 -4.359375 C 1.820312 -4.148438 0.859375 -4.132812 -0.046875 -4.3125 C -1.546875 -4.664062 -2.207031 -5.675781 -2.03125 -7.34375 C -1.851562 -8.78125 -1.207031 -9.984375 -0.09375 -10.953125 C 1.019531 -11.921875 2.238281 -12.503906 3.5625 -12.703125 C 3.5625 -12.703125 3.570312 -12.703125 3.59375 -12.703125 C 3.925781 -12.785156 4.253906 -12.816406 4.578125 -12.796875 C 5.109375 -12.691406 5.476562 -12.441406 5.6875 -12.046875 C 5.894531 -11.660156 5.878906 -11.1875 5.640625 -10.625 C 5.078125 -9.375 4.171875 -8.585938 2.921875 -8.265625 C 2.085938 -8.046875 1.265625 -7.957031 0.453125 -8 C 0.304688 -7.988281 0.179688 -7.921875 0.078125 -7.796875 C -0.0234375 -7.679688 -0.078125 -7.539062 -0.078125 -7.375 C -0.148438 -6.34375 0.257812 -5.757812 1.15625 -5.625 C 2.257812 -5.425781 3.34375 -5.601562 4.40625 -6.15625 C 5.632812 -6.769531 6.738281 -7.726562 7.71875 -9.03125 C 8.707031 -10.34375 9.296875 -10.972656 9.484375 -10.921875 C 9.679688 -10.878906 9.773438 -10.675781 9.765625 -10.3125 C 9.691406 -9.71875 9.375 -9.035156 8.8125 -8.265625 Z M 0.96875 -9.859375 C 0.90625 -9.765625 0.867188 -9.664062 0.859375 -9.5625 C 0.847656 -9.457031 0.898438 -9.378906 1.015625 -9.328125 C 1.453125 -9.160156 1.898438 -9.144531 2.359375 -9.28125 C 2.828125 -9.425781 3.203125 -9.671875 3.484375 -10.015625 C 3.773438 -10.367188 3.859375 -10.75 3.734375 -11.15625 C 3.679688 -11.3125 3.585938 -11.398438 3.453125 -11.421875 C 3.316406 -11.441406 3.191406 -11.425781 3.078125 -11.375 C 2.234375 -11.082031 1.53125 -10.578125 0.96875 -9.859375 Z M 0.96875 -9.859375 "/></g></g><g transform="translate(243.678017, 205.439167)"><g><path d="M 11.15625 -10.875 C 11.457031 -10.769531 11.535156 -10.398438 11.390625 -9.765625 C 11.140625 -9.265625 10.851562 -8.789062 10.53125 -8.34375 C 10.207031 -7.90625 9.835938 -7.492188 9.421875 -7.109375 C 9.390625 -7.109375 9.378906 -7.097656 9.390625 -7.078125 C 9.128906 -6.828125 8.835938 -6.597656 8.515625 -6.390625 C 5.921875 -4.941406 4.421875 -5.296875 4.015625 -7.453125 C 3.046875 -6.296875 2.390625 -5.578125 2.046875 -5.296875 C 1.222656 -4.609375 0.269531 -4.210938 -0.8125 -4.109375 C -1.601562 -4.003906 -2.175781 -4.144531 -2.53125 -4.53125 C -2.882812 -4.925781 -2.957031 -5.523438 -2.75 -6.328125 C -2.425781 -7.578125 -1.863281 -8.734375 -1.0625 -9.796875 C -0.132812 -10.992188 0.953125 -12.007812 2.203125 -12.84375 C 2.859375 -13.320312 3.582031 -13.582031 4.375 -13.625 C 5.175781 -13.707031 5.722656 -13.34375 6.015625 -12.53125 C 6.117188 -12.28125 6.09375 -12.039062 5.9375 -11.8125 C 5.71875 -11.539062 5.429688 -11.4375 5.078125 -11.5 C 5.054688 -11.5 5.019531 -11.5 4.96875 -11.5 C 4.925781 -11.507812 4.890625 -11.523438 4.859375 -11.546875 C 4.460938 -11.960938 4.097656 -12.101562 3.765625 -11.96875 C 3.429688 -11.832031 3.09375 -11.613281 2.75 -11.3125 C 1.132812 -9.988281 0.0507812 -8.328125 -0.5 -6.328125 C -0.539062 -6.234375 -0.554688 -6.132812 -0.546875 -6.03125 C -0.546875 -5.9375 -0.503906 -5.863281 -0.421875 -5.8125 C -0.210938 -5.78125 0.0078125 -5.832031 0.25 -5.96875 C 0.488281 -6.113281 0.71875 -6.300781 0.9375 -6.53125 C 1.164062 -6.769531 1.359375 -6.960938 1.515625 -7.109375 C 1.535156 -7.148438 1.546875 -7.171875 1.546875 -7.171875 C 2.273438 -8.015625 2.984375 -8.875 3.671875 -9.75 C 3.960938 -10.1875 4.378906 -10.472656 4.921875 -10.609375 C 5.679688 -10.734375 6.046875 -10.445312 6.015625 -9.75 C 5.992188 -9.476562 5.960938 -9.207031 5.921875 -8.9375 C 5.796875 -7.789062 5.890625 -7.144531 6.203125 -7 C 6.515625 -6.851562 6.9375 -6.921875 7.46875 -7.203125 C 8.007812 -7.492188 8.523438 -7.953125 9.015625 -8.578125 C 9.503906 -9.210938 9.910156 -9.78125 10.234375 -10.28125 C 10.554688 -10.789062 10.863281 -10.988281 11.15625 -10.875 Z M 11.15625 -10.875 "/></g></g><g transform="translate(255.181561, 203.570718)"><g><path d="M 13.921875 -11.625 C 14.179688 -11.601562 14.328125 -11.535156 14.359375 -11.421875 C 14.390625 -11.316406 14.40625 -11.265625 14.40625 -11.265625 C 14.195312 -10.722656 13.953125 -10.222656 13.671875 -9.765625 C 12.992188 -8.722656 12.148438 -7.84375 11.140625 -7.125 C 10.671875 -6.726562 10.09375 -6.46875 9.40625 -6.34375 C 7.875 -6.070312 7.046875 -6.707031 6.921875 -8.25 C 6.929688 -8.59375 6.957031 -8.921875 7 -9.234375 C 7.03125 -9.398438 7.046875 -9.554688 7.046875 -9.703125 C 7.109375 -10.285156 7.101562 -10.601562 7.03125 -10.65625 C 6.957031 -10.71875 6.800781 -10.53125 6.5625 -10.09375 C 6.488281 -10.019531 6.421875 -9.9375 6.359375 -9.84375 C 5.992188 -9.207031 5.613281 -8.582031 5.21875 -7.96875 C 4.488281 -6.800781 3.601562 -5.78125 2.5625 -4.90625 C 1.945312 -4.382812 1.257812 -4.054688 0.5 -3.921875 C -0.738281 -3.648438 -1.53125 -4.101562 -1.875 -5.28125 C -2.007812 -5.769531 -2.066406 -6.253906 -2.046875 -6.734375 C -1.847656 -8.785156 -1.070312 -10.445312 0.28125 -11.71875 C 1.644531 -13 3.332031 -13.65625 5.34375 -13.6875 C 5.925781 -13.601562 6.3125 -13.8125 6.5 -14.3125 C 6.570312 -14.507812 6.644531 -14.707031 6.71875 -14.90625 C 7.101562 -15.914062 7.472656 -16.914062 7.828125 -17.90625 C 8.503906 -19.820312 9.179688 -21.75 9.859375 -23.6875 C 10.429688 -25.207031 10.988281 -26.742188 11.53125 -28.296875 C 11.707031 -28.773438 11.894531 -29.238281 12.09375 -29.6875 C 12.1875 -29.90625 12.328125 -30.050781 12.515625 -30.125 C 12.703125 -30.195312 12.898438 -30.253906 13.109375 -30.296875 C 13.148438 -30.296875 13.203125 -30.300781 13.265625 -30.3125 C 13.492188 -30.351562 13.679688 -30.320312 13.828125 -30.21875 C 13.984375 -30.125 14.046875 -29.976562 14.015625 -29.78125 C 13.941406 -29.269531 13.832031 -28.773438 13.6875 -28.296875 C 12.96875 -25.992188 12.316406 -23.675781 11.734375 -21.34375 C 11.148438 -19.007812 10.582031 -16.664062 10.03125 -14.3125 C 9.832031 -13.5 9.644531 -12.6875 9.46875 -11.875 C 9.226562 -10.914062 9.054688 -9.945312 8.953125 -8.96875 C 8.921875 -8.75 8.921875 -8.535156 8.953125 -8.328125 C 8.984375 -8.128906 9.113281 -7.976562 9.34375 -7.875 C 9.476562 -7.800781 9.609375 -7.800781 9.734375 -7.875 C 9.867188 -7.957031 10.015625 -8.046875 10.171875 -8.140625 C 10.191406 -8.179688 10.21875 -8.210938 10.25 -8.234375 C 11.25 -9.046875 12.132812 -9.976562 12.90625 -11.03125 C 13.03125 -11.195312 13.164062 -11.34375 13.3125 -11.46875 C 13.457031 -11.601562 13.660156 -11.65625 13.921875 -11.625 Z M 5.15625 -11.359375 C 5.257812 -11.585938 5.269531 -11.789062 5.1875 -11.96875 C 5.101562 -12.15625 4.953125 -12.28125 4.734375 -12.34375 C 4.265625 -12.507812 3.800781 -12.460938 3.34375 -12.203125 C 2.207031 -11.648438 1.316406 -10.800781 0.671875 -9.65625 C 0.0351562 -8.519531 -0.21875 -7.34375 -0.09375 -6.125 C -0.0507812 -6.082031 -0.03125 -6.046875 -0.03125 -6.015625 C -0.0078125 -5.910156 0.00390625 -5.804688 0.015625 -5.703125 C 0.210938 -5.160156 0.570312 -5.101562 1.09375 -5.53125 C 1.625 -5.96875 2.1875 -6.628906 2.78125 -7.515625 C 3.382812 -8.398438 3.914062 -9.234375 4.375 -10.015625 C 4.832031 -10.804688 5.09375 -11.253906 5.15625 -11.359375 Z M 5.15625 -11.359375 "/></g></g></g><g clip-path="url(#25119d68c5)"><g clip-path="url(#c28aba75ee)"><path fill="#000000" d="M 287.066406 188.25 L 291.136719 188.25 L 291.136719 192.320312 L 287.066406 192.320312 Z M 287.066406 188.25 " fill-opacity="1" fill-rule="nonzero"/></g></g></svg>